# xmcd CD database file
# Copyright (C) 1993-1998 Ti Kan
#
# Track frame offsets:
#	183
#	13553
#	28970
#	40443
#	54098
#	65285
#	87770
#	102723
#	120620
#	139423
#	148590
# Disc length: 2220 seconds
#
# Revision: 0
# Processed by: cddbd v1.4b41PL1 Copyright (c) Steve Scherf et al.
# Submitted via: CDmax 1.5.4
#
DISCID=9a08aa0b
DTITLE=Okey Dokey Stompers - Dangerman Blues
DYEAR=1900
DGENRE=
TTITLE0=Tina Nina Noo
TTITLE1=Dynamite
TTITLE2=Best Bet Baby
TTITLE3=I Was Fooled
TTITLE4=Okey Dokey Stomp
TTITLE5=Back Scratcher
TTITLE6=Back To Louisiana
TTITLE7=Messing Me Around
TTITLE8=Evil
TTITLE9=Okey Dokey Groove
TTITLE10=Big Leg Woman
EXTD=
EXTT0=
EXTT1=
EXTT2=
EXTT3=
EXTT4=
EXTT5=
EXTT6=
EXTT7=
EXTT8=
EXTT9=
EXTT10=
PLAYORDER=
